<svg width="49" height="49" viewBox="0 0 49 49" fill="none" xmlns="http://www.w3.org/2000/svg">
<path fill-rule="evenodd" clip-rule="evenodd" d="M24.3509 4.92334C25.6764 4.92334 26.7509 5.99787 26.7509 7.32334V9.72334C26.7509 11.0488 25.6764 12.1233 24.3509 12.1233C23.0254 12.1233 21.9509 11.0488 21.9509 9.72334V7.32334C21.9509 5.99787 23.0254 4.92334 24.3509 4.92334ZM33.9509 24.1233C33.9509 29.4252 29.6527 33.7233 24.3509 33.7233C19.0489 33.7233 14.7509 29.4252 14.7509 24.1233C14.7509 18.8214 19.0489 14.5233 24.3509 14.5233C29.6527 14.5233 33.9509 18.8214 33.9509 24.1233ZM32.8363 36.0026L34.5334 37.6997C35.4706 38.6369 36.9902 38.6369 37.9274 37.6997C38.8646 36.7625 38.8646 35.2428 37.9274 34.3056L36.2304 32.6085C35.2932 31.6713 33.7735 31.6713 32.8363 32.6085C31.8991 33.5457 31.8991 35.0654 32.8363 36.0026ZM37.9272 10.5468C38.8644 11.484 38.8644 13.0036 37.9272 13.9409L36.2302 15.6379C35.293 16.5752 33.7733 16.5752 32.8361 15.6379C31.8989 14.7007 31.8989 13.1811 32.8361 12.2438L34.5331 10.5468C35.4703 9.60951 36.99 9.60951 37.9272 10.5468ZM41.1509 26.5233C42.4764 26.5233 43.5509 25.4489 43.5509 24.1233C43.5509 22.7979 42.4764 21.7233 41.1509 21.7233H38.7509C37.4254 21.7233 36.3509 22.7979 36.3509 24.1233C36.3509 25.4489 37.4254 26.5233 38.7509 26.5233H41.1509ZM24.3509 36.1233C25.6764 36.1233 26.7509 37.1978 26.7509 38.5233V40.9233C26.7509 42.2489 25.6764 43.3233 24.3509 43.3233C23.0254 43.3233 21.9509 42.2489 21.9509 40.9233V38.5233C21.9509 37.1978 23.0254 36.1233 24.3509 36.1233ZM12.4716 15.638C13.4089 16.5752 14.9285 16.5752 15.8657 15.638C16.803 14.7007 16.803 13.1811 15.8657 12.2439L14.1687 10.5468C13.2314 9.60956 11.7118 9.60956 10.7746 10.5468C9.83731 11.4841 9.83731 13.0037 10.7746 13.9409L12.4716 15.638ZM15.8655 36.0026L14.1684 37.6997C13.2312 38.6369 11.7116 38.6369 10.7743 37.6997C9.8371 36.7625 9.8371 35.2428 10.7743 34.3056L12.4714 32.6085C13.4087 31.6713 14.9283 31.6713 15.8655 32.6085C16.8028 33.5457 16.8028 35.0654 15.8655 36.0026ZM9.95088 26.5233C11.2764 26.5233 12.3509 25.4489 12.3509 24.1233C12.3509 22.7979 11.2764 21.7233 9.95088 21.7233H7.55088C6.22541 21.7233 5.15088 22.7979 5.15088 24.1233C5.15088 25.4489 6.22541 26.5233 7.55088 26.5233H9.95088Z" fill="white"/>
</svg>
